<svg 
    width="32" 
    height="32" 
    viewBox="0 0 16 16" 
    fill="none" xmlns="http://www.w3.org/2000/svg">
<path 
d="M1.19375 1.19375C1.4516 0.935977 1.80127 0.791168 2.16587 0.791168C2.53047 0.791168 2.88015 0.935977 3.138 1.19375L8 6.05575L12.862 1.19375C13.1213 0.943282 13.4687 0.80469 13.8292 0.807823C14.1897 0.810956 14.5346 0.955563 14.7895 1.2105C15.0444 1.46544 15.189 1.8103 15.1922 2.17082C15.1953 2.53134 15.0567 2.87867 14.8062 3.138L9.94425 8L14.8062 12.862C15.0567 13.1213 15.1953 13.4687 15.1922 13.8292C15.189 14.1897 15.0444 14.5346 14.7895 14.7895C14.5346 15.0444 14.1897 15.189 13.8292 15.1922C13.4687 15.1953 13.1213 15.0567 12.862 14.8062L8 9.94425L3.138 14.8062C2.87867 15.0567 2.53134 15.1953 2.17082 15.1922C1.8103 15.189 1.46544 15.0444 1.2105 14.7895C0.955563 14.5346 0.810956 14.1897 0.807823 13.8292C0.80469 13.4687 0.943282 13.1213 1.19375 12.862L6.05575 8L1.19375 3.138C0.935977 2.88015 0.791168 2.53047 0.791168 2.16587C0.791168 1.80127 0.935977 1.4516 1.19375 1.19375V1.19375Z" 
fill="#ffffff"/>
</svg>
